<svg width="20" height="20" viewBox="0 0 20 20" fill="none" xmlns="http://www.w3.org/2000/svg">
<circle cx="10.0001" cy="9.99935" r="8.33333" fill="#E7E9EE"/>
<path fill-rule="evenodd" clip-rule="evenodd" d="M6.83934 6.07709C6.5139 5.75165 5.98626 5.75165 5.66083 6.07709C5.33539 6.40252 5.33539 6.93016 5.66083 7.2556L8.61326 10.208L5.84653 12.9748C5.52109 13.3002 5.52109 13.8278 5.84653 14.1533C6.17197 14.4787 6.6996 14.4787 7.02504 14.1533L9.79177 11.3865L12.5585 14.1533C12.8839 14.4787 13.4116 14.4787 13.737 14.1533C14.0625 13.8278 14.0625 13.3002 13.737 12.9748L10.9703 10.208L13.9227 7.2556C14.2482 6.93016 14.2482 6.40252 13.9227 6.07709C13.5973 5.75165 13.0696 5.75165 12.7442 6.07709L9.79177 9.02952L6.83934 6.07709Z" fill="white"/>
</svg>
